<svg width="56" height="58" viewBox="0 0 56 58" fill="none" xmlns="http://www.w3.org/2000/svg">
<path d="M27.9408 5.17333C35.4057 5.17333 36.282 5.20752 39.2325 5.34426C41.9611 5.46961 43.4364 5.93679 44.4236 6.33561C45.7324 6.85978 46.6642 7.47511 47.6403 8.47787C48.6164 9.48063 49.2264 10.4378 49.7256 11.7824C50.1027 12.7966 50.5685 14.3121 50.6906 17.1153C50.8237 20.1464 50.8569 21.0466 50.8569 28.7154C50.8569 36.3842 50.8237 37.2844 50.6906 40.3155C50.5685 43.1186 50.1138 44.6342 49.7256 45.6483C49.2154 46.9929 48.6164 47.9501 47.6403 48.9529C46.6642 49.9556 45.7324 50.5824 44.4236 51.0951C43.4364 51.4826 41.9611 51.9612 39.2325 52.0865C36.282 52.2232 35.4057 52.2574 27.9408 52.2574C20.4759 52.2574 19.5996 52.2232 16.6491 52.0865C13.9205 51.9612 12.4453 51.494 11.4581 51.0951C10.1492 50.571 9.21746 49.9556 8.24136 48.9529C7.26526 47.9501 6.65521 46.9929 6.15607 45.6483C5.77894 44.6342 5.31308 43.1186 5.19107 40.3155C5.05797 37.2844 5.02469 36.3842 5.02469 28.7154C5.02469 21.0466 5.05797 20.1464 5.19107 17.1153C5.31308 14.3121 5.76785 12.7966 6.15607 11.7824C6.6663 10.4378 7.26527 9.48063 8.24136 8.47787C9.21746 7.47511 10.1492 6.84839 11.4581 6.33561C12.4453 5.94818 13.9205 5.46961 16.6491 5.34426C19.5996 5.19613 20.487 5.17333 27.9408 5.17333ZM27.9408 0C20.3538 0 19.4 0.0341955 16.4162 0.170935C13.4435 0.307675 11.4137 0.797635 9.63898 1.50412C7.7977 2.2334 6.24481 3.22478 4.69193 4.82008C3.13904 6.41537 2.18512 8.02207 1.46414 9.90224C0.776436 11.7254 0.299486 13.8107 0.166382 16.876C0.0332772 19.9298 0 20.9098 0 28.704C0 36.4981 0.0332775 37.4781 0.166382 40.5434C0.299486 43.5972 0.776436 45.6825 1.46414 47.5171C2.17403 49.4087 3.13904 51.004 4.69193 52.5993C6.24481 54.1946 7.80879 55.1745 9.63898 55.9152C11.4137 56.6217 13.4436 57.1117 16.4273 57.2484C19.4111 57.3852 20.3539 57.4194 27.9519 57.4194C35.5499 57.4194 36.4927 57.3852 39.4765 57.2484C42.4492 57.1117 44.479 56.6217 46.2648 55.9152C48.1061 55.1859 49.659 54.1946 51.2119 52.5993C52.7648 51.004 53.7187 49.3973 54.4397 47.5171C55.1274 45.6939 55.6043 43.6086 55.7374 40.5434C55.8705 37.4781 55.9038 36.5095 55.9038 28.704C55.9038 20.8984 55.8705 19.9298 55.7374 16.8646C55.6043 13.8107 55.1274 11.7255 54.4397 9.89087C53.7298 7.9993 52.7648 6.404 51.2119 4.8087C49.659 3.2134 48.095 2.23342 46.2648 1.49275C44.4901 0.786256 42.4603 0.296265 39.4765 0.159525C36.4817 0.034181 35.5277 0 27.9408 0Z" fill="#601C0B"/>
<path d="M27.9519 13.9646C20.0322 13.9646 13.5988 20.5623 13.5988 28.7097C13.5988 36.8571 20.0211 43.4548 27.9519 43.4548C35.8827 43.4548 42.305 36.8571 42.305 28.7097C42.305 20.5623 35.8827 13.9646 27.9519 13.9646ZM27.9519 38.2701C22.8052 38.2701 18.6346 33.9855 18.6346 28.6983C18.6346 23.411 22.8052 19.1265 27.9519 19.1265C33.0986 19.1265 37.2692 23.411 37.2692 28.6983C37.2692 33.9855 33.0986 38.2701 27.9519 38.2701Z" fill="#601C0B"/>
<path d="M38.4447 12.5709C38.4365 14.4587 39.9419 16.0191 41.7795 16.0276C43.6285 16.036 45.1525 14.4704 45.1443 12.5709C45.1525 10.683 43.6471 9.12266 41.8095 9.11422C39.9605 9.10572 38.4364 10.6714 38.4447 12.5709Z" fill="#601C0B"/>
</svg>
